<svg width="1030" height="1030" viewBox="0 0 1030 1030" fill="none" xmlns="http://www.w3.org/2000/svg">
<circle cx="515" cy="515" r="507.5" stroke="#EEECDA" stroke-width="15"/>
<path d="M792.198 534.338C796.7 517.87 799.721 503.392 801.261 490.904C802.854 478.221 803.001 468.163 801.702 460.729L694.759 431.493L611.104 737.501C608.879 745.638 607.263 752.692 606.255 758.663C605.494 764.493 605.28 769.848 605.611 774.728C609.556 777.055 613.897 779.075 618.634 780.787C623.619 782.357 629.017 783.937 634.829 785.526L660.983 792.676L649.861 833.361C635.279 827.292 621.357 822.237 608.095 818.195C594.833 814.153 581.809 810.385 569.022 806.889C551.199 802.016 534 797.523 517.426 793.408C500.853 789.294 483.583 785.822 465.617 782.993L476.739 742.308L502.603 749.379C508.415 750.967 513.866 752.354 518.957 753.537C524.047 754.72 528.811 755.19 533.251 754.946C538.222 748.185 542.535 738.12 546.19 724.752L631.117 414.094L524.174 384.859C519.273 390.598 514.283 399.333 509.202 411.061C504.175 422.596 499.41 436.598 494.908 453.065L454.805 442.102C456.605 435.515 458.477 427.906 460.42 419.276C462.61 410.505 464.659 401.487 466.567 392.222C468.721 382.817 470.85 373.508 472.952 364.297C475.3 354.945 477.56 346.297 479.732 338.354C484.576 337.388 493.058 338.353 505.175 341.249C517.487 344.198 532.264 348.03 549.506 352.743C551.637 353.326 555.776 354.562 561.923 356.45C568.316 358.198 575.652 360.307 583.929 362.779C592.401 365.303 601.454 367.986 611.088 370.828C620.774 373.476 629.854 376.062 638.325 378.586C646.99 381.163 654.59 383.449 661.124 385.444C667.905 387.297 672.651 388.595 675.364 389.336C680.401 390.713 686.697 392.435 694.253 394.5C701.862 396.372 709.858 398.35 718.242 400.434C726.625 402.517 734.983 404.698 743.313 406.975C751.891 409.112 759.596 411.01 766.43 412.67C773.458 414.383 779.199 415.849 783.655 417.067C788.164 418.091 790.709 418.683 791.29 418.842C808.921 423.661 823.759 428.03 835.805 431.948C847.905 435.672 855.821 439.086 859.554 442.188C857.382 450.131 854.831 458.7 851.902 467.893C849.219 476.946 846.412 486.069 843.483 495.262C840.606 504.262 837.782 513.068 835.011 521.68C832.487 530.152 830.325 537.681 828.524 544.268L792.198 534.338Z" fill="#384A66"/>
<path d="M438.793 453.08H511.791C510.326 477.006 503.734 498.246 492.016 516.801C480.46 535.355 464.265 549.841 443.432 560.258C422.761 570.674 397.859 575.883 368.725 575.883C345.938 575.883 325.512 571.977 307.445 564.164C289.379 556.189 273.917 544.796 261.059 529.984C248.363 515.173 238.679 497.27 232.006 476.273C225.333 455.277 221.996 431.758 221.996 405.717V381.059C221.996 355.017 225.414 331.498 232.25 310.502C239.249 289.343 249.177 271.358 262.035 256.547C275.056 241.736 290.6 230.342 308.666 222.367C326.732 214.392 346.915 210.404 369.213 210.404C398.835 210.404 423.819 215.775 444.164 226.518C464.672 237.26 480.541 252.071 491.771 270.951C503.165 289.831 510.001 311.316 512.279 335.404H439.037C438.223 321.081 435.375 308.956 430.492 299.027C425.609 288.936 418.204 281.368 408.275 276.322C398.51 271.114 385.489 268.51 369.213 268.51C357.006 268.51 346.345 270.788 337.23 275.346C328.116 279.903 320.466 286.82 314.281 296.098C308.096 305.375 303.458 317.094 300.365 331.254C297.436 345.251 295.971 361.69 295.971 380.57V405.717C295.971 424.109 297.354 440.303 300.121 454.301C302.888 468.135 307.12 479.854 312.816 489.457C318.676 498.897 326.163 506.059 335.277 510.941C344.555 515.661 355.704 518.021 368.725 518.021C384.024 518.021 396.638 515.58 406.566 510.697C416.495 505.814 424.063 498.572 429.271 488.969C434.643 479.366 437.816 467.403 438.793 453.08Z" fill="#654B38"/>
</svg>
